{"title":"Graceland 2012 BRRip 720p x264 AAC - PRiSTiNE [P2PDL]","uid":8685467,"size":546752858,"categoryP":"video","categoryS":"hd___movies","magnet":"?xt=urn:btih:9beba5808a9ed9e0e52a35d218ed62ccc751dd84&amp;dn=Graceland+2012+BRRip+720p+x264+AAC+-+PRiSTiNE+%5BP2PDL%5D&amp;tr=udp%3A%2F%2Ftracker.openbittorrent.com%3A80&amp;tr=udp%3A%2F%2Fopen.demonii.com%3A1337&amp;tr=udp%3A%2F%2Ftracker.coppersurfer.tk%3A6969&amp;tr=udp%3A%2F%2Fexodus.desync.com%3A6969","seeders":2,"leechers":1,"uploader":"ValidusVyto","files":-1,"time":1373790608,"description":"_______ Visit us at our Semi Public Bittorrent Community ________\n  &lt;a href=&quot;\nhttp://p2pdl.com&quot; rel=&quot;nofollow&quot; target=&quot;_NEW&quot;&gt;\nhttp://p2pdl.com&lt;/a&gt;  _____________________________ &lt;a href=&quot; http://p2pdl.com&quot; rel=&quot;nofollow&quot; target=&quot;_NEW&quot;&gt; http://p2pdl.com&lt;/a&gt;\n\n\nGraceland 2012 BRRip 720p x264 AAC - PRiSTiNE\n\n\nGenre: Crime | Thriller  \nPlot: When a kidnapping goes wrong, a desperate father risks everything to save his\ndaughter from the men who hold her captive. \nDirector: Ron Morales\nStars: Arnold Reyes, Menggie Cobarrubias, Dido De La Paz.\nRated: N/a\n\nInfo: &lt;a href=&quot;\nhttp://www.imdb.com/title/tt2131523/&quot; rel=&quot;nofollow&quot; target=&quot;_NEW&quot;&gt;\nhttp://www.imdb.com/title/tt2131523/&lt;/a&gt;\n\n\nFormat                         : MPEG-4\nFile size                      : 511 MiB\nDuration                       : 1h 24mn\nOverall bit rate               : 850 Kbps\nSource                         : 720p.BluRay.x264.DTS-HDWinG\n\nVideo\nFormat                         : AVC\nBit rate                       : 769 Kbps\nWidth                          : 1 280 pixels\nHeight                         : 688 pixels\nDisplay aspect ratio           : 1.85:1\nFrame rate mode                : Constant\nFrame rate                     : 23.976 fps\nStream size                    : 461 MiB (90%)\nWriting library                : x264 core 130 r2273]\nAudio\nFormat                         : AAC\nBit rate mode                  : Variable\nBit rate                       : 79.5 Kbps\nChannel(s)                     : 2 channels\nChannel positions              : Front: L R\nSampling rate                  : 44.1 KHz\nStream size                    : 47.8 MiB (9%)\nLanguage                       : Tagalog\n\nSubtitle                       : Yes(English-Hardcoded)\n &lt;a href=&quot;\nhttp://someimage.com/rpJlt60&quot; rel=&quot;nofollow&quot; target=&quot;_NEW&quot;&gt;\nhttp://someimage.com/rpJlt60&lt;/a&gt; &lt;a href=&quot;\nhttp://someimage.com/z7EXL6D&quot; rel=&quot;nofollow&quot; target=&quot;_NEW&quot;&gt;\nhttp://someimage.com/z7EXL6D&lt;/a&gt; &lt;a href=&quot;\nhttp://someimage.com/bbZUcr2&quot; rel=&quot;nofollow&quot; target=&quot;_NEW&quot;&gt;\nhttp://someimage.com/bbZUcr2&lt;/a&gt; &lt;a href=&quot;\nhttp://someimage.com/kXlSUr3&quot; rel=&quot;nofollow&quot; target=&quot;_NEW&quot;&gt;\nhttp://someimage.com/kXlSUr3&lt;/a&gt; &lt;a href=&quot;\nhttp://someimage.com/7Lep0OB&quot; rel=&quot;nofollow&quot; target=&quot;_NEW&quot;&gt;\nhttp://someimage.com/7Lep0OB&lt;/a&gt; &lt;a href=&quot;\nhttp://someimage.com/jKrIIVw&quot; rel=&quot;nofollow&quot; target=&quot;_NEW&quot;&gt;\nhttp://someimage.com/jKrIIVw&lt;/a&gt;\n\n----------------------------------------------------------------------------------------------------\n\n\nEncoded using revolutionary 10bit encoding, which enables us to provide you more crispier \nand sharper images at small sizes, just make sure you follow our instructions without a fault.\nRecommend to you to use latest version of VLC player. Install K-Lite Codec Pack or shark007 codecs\nin case of any kind of problem in playback (For non-VLC Media Player users). Alternatively, install\nCore AVC codecs, the fastest decoder that there is coupled with Community Center Codec Pack and play\non Windows Media Player Classic. Check sample to be sure.\nEnjoy!\n\nEncoder Notes:Looking For Early Access To Anything You Can Provide DVDScr, R5, DVDR, BluRay, Direct\nAudio, Music Releases and Seedboxes. We require dedicated servers, so as to do more \nand fast releases of movies.\nIf You Got anything to offer please contact us at &quot;&lt;a class=&quot;__cf_email__&quot; href=&quot;/cdn-cgi/l/email-protection&quot; data-cfemail=&quot;46363421062e33352e6825292b&quot;&gt;[email&amp;#160;protected]&lt;/a&gt;&lt;script cf-hash='f9e31' type=&quot;text/javascript&quot;&gt;\n/* &lt;![CDATA[ */!function(){try{var t=&quot;currentScript&quot;in document?document.currentScript:function(){for(var t=document.getElementsByTagName(&quot;script&quot;),e=t.length;e--;)if(t[e].getAttribute(&quot;cf-hash&quot;))return t[e]}();if(t&amp;&amp;t.previousSibling){var e,r,n,i,c=t.previousSibling,a=c.getAttribute(&quot;data-cfemail&quot;);if(a){for(e=&quot;&quot;,r=parseInt(a.substr(0,2),16),n=2;a.length-n;n+=2)i=parseInt(a.substr(n,2),16)^r,e+=String.fromCharCode(i);e=document.createTextNode(e),c.parentNode.replaceChild(e,c)}}}catch(u){}}();/* ]]&gt; */&lt;/script&gt;&quot;.\n\nFace book Fan Page:  \nSearch P2PDL on FB","torrent":{"xt":"urn:btih:9beba5808a9ed9e0e52a35d218ed62ccc751dd84","amp;dn":"Graceland+2012+BRRip+720p+x264+AAC+-+PRiSTiNE+%5BP2PDL%5D","amp;tr":["udp%3A%2F%2Ftracker.openbittorrent.com%3A80","udp%3A%2F%2Fopen.demonii.com%3A1337","udp%3A%2F%2Ftracker.coppersurfer.tk%3A6969","udp%3A%2F%2Fexodus.desync.com%3A6969"],"infoHash":"9beba5808a9ed9e0e52a35d218ed62ccc751dd84","infoHashBuffer":{"type":"Buffer","data":[155,235,165,128,138,158,217,224,229,42,53,210,24,237,98,204,199,81,221,132]},"announce":[],"urlList":[]}}